<svg width="18" height="21" viewBox="0 0 18 21" fill="none" xmlns="http://www.w3.org/2000/svg">
<path d="M0.278442 18.0509V8.07941C0.278442 7.72856 0.357106 7.39618 0.514433 7.08227C0.67176 6.76835 0.888548 6.50983 1.16479 6.30671L7.81243 1.32098C8.20021 1.02553 8.64338 0.877808 9.14195 0.877808C9.64053 0.877808 10.0837 1.02553 10.4715 1.32098L17.1191 6.30671C17.3961 6.50983 17.6133 6.76835 17.7706 7.08227C17.9279 7.39618 18.0062 7.72856 18.0055 8.07941V18.0509C18.0055 18.6602 17.7883 19.1821 17.354 19.6164C16.9197 20.0507 16.3982 20.2675 15.7896 20.2667H12.4658C12.1519 20.2667 11.8889 20.1604 11.6769 19.9477C11.4649 19.7349 11.3586 19.472 11.3578 19.1588V13.6191C11.3578 13.3052 11.2515 13.0422 11.0387 12.8303C10.826 12.6183 10.5631 12.5119 10.2499 12.5112H8.03401C7.7201 12.5112 7.45715 12.6175 7.24516 12.8303C7.03318 13.043 6.92681 13.3059 6.92608 13.6191V19.1588C6.92608 19.4727 6.81971 19.736 6.60699 19.9488C6.39426 20.1615 6.13131 20.2675 5.81814 20.2667H2.49432C1.88495 20.2667 1.36348 20.05 0.92991 19.6164C0.496337 19.1828 0.279181 18.661 0.278442 18.0509Z" fill="#A7E19D"/>
</svg>
