<svg width="18" height="21" viewBox="0 0 18 21" fill="none" xmlns="http://www.w3.org/2000/svg">
<path d="M0.278381 18.0509V8.07941C0.278381 7.72856 0.357045 7.39618 0.514372 7.08227C0.671699 6.76835 0.888487 6.50983 1.16473 6.30671L7.81237 1.32098C8.20014 1.02553 8.64332 0.877808 9.14189 0.877808C9.64046 0.877808 10.0836 1.02553 10.4714 1.32098L17.1191 6.30671C17.396 6.50983 17.6132 6.76835 17.7705 7.08227C17.9278 7.39618 18.0061 7.72856 18.0054 8.07941V18.0509C18.0054 18.6602 17.7882 19.1821 17.3539 19.6164C16.9196 20.0507 16.3982 20.2675 15.7895 20.2667H12.4657C12.1518 20.2667 11.8888 20.1604 11.6769 19.9477C11.4649 19.7349 11.3585 19.472 11.3578 19.1588V13.6191C11.3578 13.3052 11.2514 13.0422 11.0387 12.8303C10.826 12.6183 10.563 12.5119 10.2498 12.5112H8.03395C7.72004 12.5112 7.45709 12.6175 7.2451 12.8303C7.03312 13.043 6.92675 13.3059 6.92601 13.6191V19.1588C6.92601 19.4727 6.81965 19.736 6.60693 19.9488C6.3942 20.1615 6.13125 20.2675 5.81808 20.2667H2.49426C1.88489 20.2667 1.36342 20.05 0.929849 19.6164C0.496276 19.1828 0.27912 18.661 0.278381 18.0509Z" fill="#49A939"/>
</svg>
