<svg width="19" height="19" viewBox="0 0 19 19" fill="none" xmlns="http://www.w3.org/2000/svg">
<path d="M9.9333 18.0529C7.84149 18.0529 5.9904 17.418 4.38003 16.1483C2.76967 14.8786 1.72376 13.2557 1.24231 11.2794C1.17591 11.0304 1.22571 10.8023 1.39173 10.5951C1.55774 10.3879 1.78187 10.2674 2.0641 10.2335C2.32972 10.2003 2.57045 10.2501 2.78627 10.3829C3.00209 10.5157 3.15151 10.7149 3.23452 10.9806C3.63296 12.4747 4.45474 13.6949 5.69987 14.6412C6.945 15.5875 8.35614 16.0607 9.9333 16.0607C11.8757 16.0607 13.5236 15.3843 14.877 14.0316C16.2303 12.6789 16.9067 11.031 16.906 9.08797C16.9054 7.1449 16.229 5.49735 14.877 4.14531C13.5249 2.79327 11.877 2.11658 9.9333 2.11525C8.78779 2.11525 7.71698 2.38088 6.72087 2.91213C5.72477 3.44339 4.88639 4.17386 4.20572 5.10356H5.94889C6.23112 5.10356 6.46786 5.19918 6.65912 5.39044C6.85037 5.58169 6.94566 5.8181 6.945 6.09966C6.94433 6.38123 6.84871 6.61797 6.65812 6.80988C6.46753 7.0018 6.23112 7.09709 5.94889 7.09576H1.96449C1.68226 7.09576 1.44585 7.00014 1.25526 6.80888C1.06467 6.61763 0.969048 6.38123 0.968384 6.09966V2.11525C0.968384 1.83302 1.06401 1.59661 1.25526 1.40603C1.44651 1.21544 1.68292 1.11981 1.96449 1.11915C2.24605 1.11849 2.48279 1.21411 2.67471 1.40603C2.86662 1.59794 2.96192 1.83435 2.96059 2.11525V3.45999C3.80728 2.39748 4.8409 1.5757 6.06145 0.994636C7.28201 0.413577 8.57263 0.123047 9.9333 0.123047C11.1784 0.123047 12.3449 0.359787 13.4326 0.833268C14.5204 1.30675 15.4667 1.94558 16.2715 2.74977C17.0764 3.55396 17.7155 4.50025 18.189 5.58866C18.6625 6.67707 18.8989 7.8435 18.8982 9.08797C18.8976 10.3324 18.6612 11.4989 18.189 12.5873C17.7168 13.6757 17.0777 14.622 16.2715 15.4262C15.4653 16.2304 14.519 16.8695 13.4326 17.3437C12.3462 17.8178 11.1798 18.0542 9.9333 18.0529ZM10.9294 8.68953L13.4197 11.1798C13.6023 11.3624 13.6936 11.5948 13.6936 11.8771C13.6936 12.1593 13.6023 12.3917 13.4197 12.5743C13.237 12.7569 13.0046 12.8483 12.7224 12.8483C12.4402 12.8483 12.2077 12.7569 12.0251 12.5743L9.23603 9.78524C9.13642 9.68563 9.06171 9.57373 9.01191 9.44955C8.9621 9.32537 8.9372 9.19654 8.9372 9.06306V5.10356C8.9372 4.82133 9.03283 4.58492 9.22408 4.39433C9.41533 4.20375 9.65174 4.10812 9.9333 4.10746C10.2149 4.10679 10.4516 4.20242 10.6435 4.39433C10.8354 4.58625 10.9307 4.82266 10.9294 5.10356V8.68953Z" fill="#49A939"/>
</svg>
