<svg width="19" height="19" viewBox="0 0 19 19" fill="none" xmlns="http://www.w3.org/2000/svg">
<path d="M9.93318 18.0529C7.84137 18.0529 5.99028 17.418 4.37991 16.1483C2.76955 14.8786 1.72364 13.2557 1.24219 11.2794C1.17578 11.0304 1.22559 10.8023 1.39161 10.5951C1.55762 10.3879 1.78175 10.2674 2.06397 10.2335C2.3296 10.2003 2.57033 10.2501 2.78615 10.3829C3.00197 10.5157 3.15139 10.7149 3.23439 10.9806C3.63284 12.4747 4.45462 13.6949 5.69975 14.6412C6.94487 15.5875 8.35602 16.0607 9.93318 16.0607C11.8756 16.0607 13.5235 15.3843 14.8768 14.0316C16.2302 12.6789 16.9066 11.031 16.9059 9.08797C16.9052 7.1449 16.2289 5.49735 14.8768 4.14531C13.5248 2.79327 11.8769 2.11658 9.93318 2.11525C8.78766 2.11525 7.71685 2.38088 6.72075 2.91213C5.72465 3.44339 4.88626 4.17386 4.20559 5.10356H5.94877C6.231 5.10356 6.46774 5.19918 6.65899 5.39044C6.85025 5.58169 6.94554 5.8181 6.94487 6.09966C6.94421 6.38123 6.84859 6.61797 6.658 6.80988C6.46741 7.0018 6.231 7.09709 5.94877 7.09576H1.96436C1.68213 7.09576 1.44573 7.00014 1.25514 6.80888C1.06455 6.61763 0.968926 6.38123 0.968262 6.09966V2.11525C0.968262 1.83302 1.06389 1.59661 1.25514 1.40603C1.44639 1.21544 1.6828 1.11981 1.96436 1.11915C2.24593 1.11849 2.48267 1.21411 2.67458 1.40603C2.8665 1.59794 2.96179 1.83435 2.96047 2.11525V3.45999C3.80715 2.39748 4.84078 1.5757 6.06133 0.994636C7.28189 0.413577 8.57251 0.123047 9.93318 0.123047C11.1783 0.123047 12.3447 0.359787 13.4325 0.833268C14.5202 1.30675 15.4665 1.94558 16.2714 2.74977C17.0762 3.55396 17.7154 4.50025 18.1889 5.58866C18.6624 6.67707 18.8988 7.8435 18.8981 9.08797C18.8974 10.3324 18.661 11.4989 18.1889 12.5873C17.7167 13.6757 17.0776 14.622 16.2714 15.4262C15.4652 16.2304 14.5189 16.8695 13.4325 17.3437C12.3461 17.8178 11.1796 18.0542 9.93318 18.0529ZM10.9293 8.68953L13.4195 11.1798C13.6022 11.3624 13.6935 11.5948 13.6935 11.8771C13.6935 12.1593 13.6022 12.3917 13.4195 12.5743C13.2369 12.7569 13.0045 12.8483 12.7223 12.8483C12.44 12.8483 12.2076 12.7569 12.025 12.5743L9.23591 9.78524C9.1363 9.68563 9.06159 9.57373 9.01179 9.44955C8.96198 9.32537 8.93708 9.19654 8.93708 9.06306V5.10356C8.93708 4.82133 9.03271 4.58492 9.22396 4.39433C9.41521 4.20375 9.65162 4.10812 9.93318 4.10746C10.2147 4.10679 10.4515 4.20242 10.6434 4.39433C10.8353 4.58625 10.9306 4.82266 10.9293 5.10356V8.68953Z" fill="#A7E19D"/>
</svg>
