<svg width="201" height="264" viewBox="0 0 201 264" fill="none" xmlns="http://www.w3.org/2000/svg">
<path d="M52.4195 235.589L40.8021 213.471L41.4572 191.822L47.0539 175.531L58.836 160.976L79.1594 157.753L102.87 164.412L120.689 178.348L133.452 193.841L141.781 209.081L137.428 221.752L125.957 235.401L110.166 241.883L96.7477 248.038L73.6425 249.488L52.4195 235.589Z" fill="#BD7F21"/>
<path d="M92.6706 203.669C93.2299 206.47 92.4907 208.936 91.0196 209.176C89.5485 209.416 83.9485 206.47 83.3892 203.669C82.8299 200.868 87.523 199.272 88.9941 199.032C90.4652 198.792 92.1112 200.868 92.6706 203.669Z" fill="#AB731D"/>
<path d="M1.00248 36.4565C69.6678 39.7737 95.6468 54.0414 95.7816 127.983C95.7816 127.983 104.059 122.306 89.5667 134.899C75.0746 147.492 -5.21262 132.865 1.00248 36.4565Z" fill="#49A939"/>
<path d="M200.368 0.659424C141.811 3.48219 119.656 15.6234 119.541 78.5445C119.541 78.5445 112.482 73.7132 124.841 84.4291C137.2 95.1451 205.668 82.6984 200.368 0.659424Z" fill="#49A939"/>
<path d="M181.789 95.0337C136.366 97.2233 119.18 106.641 119.091 155.449C119.091 155.449 113.615 151.702 123.202 160.014C132.789 168.326 185.9 158.671 181.789 95.0337Z" fill="#49A939"/>
<path d="M18.5354 55.0883C20.1681 53.8913 22.3412 53.8378 23.9996 54.9441C79.1813 91.7509 98.7621 120.829 110.357 184.078C110.713 186.02 109.927 188.035 108.36 189.184C105.402 191.352 101.327 189.538 100.748 185.855C91.0448 124.141 70.7667 96.2137 18.8004 63.747C15.7511 61.8419 15.5881 57.2492 18.5354 55.0883Z" fill="#2C6922"/>
<path d="M101.214 172.113C99.4182 171.18 98.3234 169.206 98.4559 167.16C102.886 98.7918 117.885 66.8648 165.363 25.9119C166.815 24.6594 168.888 24.4235 170.613 25.3199C173.846 26.9998 174.307 31.5657 171.526 33.837C124.349 72.3594 110.644 104.39 108.322 167.816C108.187 171.492 104.435 173.787 101.214 172.113Z" fill="#2C6922"/>
<path d="M106.485 230.999C104.804 230.126 103.716 228.341 103.687 226.418C102.777 166.028 115.499 138.909 160.454 106.615C161.892 105.582 163.801 105.453 165.397 106.282C168.827 108.065 169.102 113.01 165.959 115.154C122.721 144.641 111.372 171.72 113.696 226.185C113.863 230.108 109.916 232.783 106.485 230.999Z" fill="#2C6922"/>
<path d="M96.9373 179.826L116.853 163.234L139.913 157.378H158.78L177.648 163.234L187.081 179.826V202.275L177.648 221.795L165.069 237.411L151.443 249.124H136.768L118.949 243.267L107.419 231.555L96.9373 221.795L88.5518 202.275L96.9373 179.826Z" fill="#DF9627"/>
<path d="M178.258 182.641C178.258 186.313 174.077 186.63 171.64 186.63C169.203 186.63 169.434 186.313 169.434 182.641C169.434 178.969 171.409 177.987 173.846 177.987C176.282 177.987 178.258 178.969 178.258 182.641Z" fill="#D18E27"/>
<path d="M158.962 170.983C159.96 173.779 157.396 175.429 155.464 175.993C153.531 176.556 152.962 175.82 151.965 173.024C150.967 170.229 153.531 168.578 155.464 168.015C157.396 167.451 157.965 168.188 158.962 170.983Z" fill="#D18E27"/>
<path d="M172.701 208.277C172.514 211.21 168.52 213.328 166.493 213.223C164.466 213.117 165.174 210.828 165.36 207.896C165.547 204.963 168.878 203.81 170.905 203.915C172.932 204.021 172.888 205.345 172.701 208.277Z" fill="#D18E27"/>
<path d="M133.137 177.602C132.833 179.272 131.618 180.481 130.422 180.304C129.227 180.126 126.483 179.272 126.787 177.602C127.091 175.932 130.327 174.079 131.522 174.256C132.718 174.434 133.441 175.932 133.137 177.602Z" fill="#D18E27"/>
<path d="M117.228 195.273C117.862 198.445 116.923 205.29 114.618 205.666C112.313 206.042 109.931 203.776 109.297 200.604C108.664 197.432 110.019 194.556 112.325 194.179C114.63 193.803 116.595 192.101 117.228 195.273Z" fill="#D18E27"/>
<path d="M87.8165 175.328C88.4498 178.5 84.9746 178.941 82.6694 179.317C80.3642 179.693 80.1018 179.863 79.4685 176.691C78.8351 173.519 80.3642 174.375 82.6694 173.998C84.9746 173.622 87.1831 172.156 87.8165 175.328Z" fill="#AB731D"/>
<path d="M58.847 198.843C59.4064 201.645 58.6672 204.11 57.1961 204.35C55.725 204.59 50.125 201.645 49.5657 198.843C49.0063 196.042 53.6994 194.446 55.1706 194.206C56.6417 193.966 58.2877 196.042 58.847 198.843Z" fill="#AB731D"/>
<path d="M87.7335 231.391C88.1683 233.569 87.7711 235.456 86.8463 235.607C85.9215 235.758 82.2903 233.351 81.8555 231.173C81.4207 228.996 84.347 227.873 85.2718 227.722C86.1965 227.571 87.2987 229.214 87.7335 231.391Z" fill="#AB731D"/>
<path d="M149.121 207.65C150.893 210.447 148.673 214.165 146.64 215.218C144.607 216.27 143.532 214.259 141.76 211.462C139.988 208.666 143.137 206.298 145.169 205.245C147.202 204.192 147.349 204.853 149.121 207.65Z" fill="#D18E27"/>
<path d="M131.176 231.442C132.788 232.692 135.077 234.03 134.14 235.018C133.203 236.005 129.397 236.268 127.785 235.018C126.173 233.767 125.115 234.155 126.052 233.168C126.988 232.18 129.564 230.192 131.176 231.442Z" fill="#D18E27"/>
</svg>
