<svg width="353" height="341" viewBox="0 0 353 341" fill="none" xmlns="http://www.w3.org/2000/svg">
<path d="M38.4661 178.569L21.1131 176.067L30.8932 186.014L25.4061 191.409L3.25881 168.883L8.74594 163.488L18.463 173.371L16.2546 156.106L22.7044 149.764L24.8292 169.384L45.1726 171.975L38.4661 178.569ZM42.9413 141.412L46.6122 146.642L55.0471 140.722L58.4595 145.584L50.0245 151.504L54.0056 157.177L63.5455 150.481L67.0872 155.527L51.2487 166.643L33.1012 140.786L48.9396 129.67L52.4812 134.716L42.9413 141.412ZM100.635 138.437L93.676 141.721L73.7205 129.593L82.0373 147.214L75.0785 150.499L61.5948 121.931L68.5536 118.647L88.5476 130.855L80.1924 113.153L87.1512 109.869L100.635 138.437ZM123.444 98.1482L125.071 104.095L116.998 106.304L123.708 130.827L116.286 132.858L109.576 108.334L101.503 110.543L99.8757 104.597L123.444 98.1482ZM158.949 119.472L147.212 120.59L145.86 126.324L137.841 127.088L146.223 94.5566L155.093 93.7116L169.468 124.075L161.359 124.848L158.949 119.472ZM156.414 113.747L151.42 102.605L148.664 114.485L156.414 113.747ZM205.491 126.495L197.83 125.774L186.84 105.17L185.016 124.57L177.355 123.85L180.312 92.3983L187.973 93.1185L198.954 113.812L200.786 94.323L208.448 95.0432L205.491 126.495ZM241.579 113.159C241.329 111.991 240.762 110.995 239.879 110.172C239.032 109.329 237.918 108.704 236.537 108.298C234.148 107.594 232.002 107.823 230.097 108.982C228.2 110.112 226.867 111.987 226.096 114.606C225.274 117.398 225.379 119.805 226.409 121.828C227.477 123.831 229.335 125.223 231.982 126.002C233.796 126.536 235.456 126.524 236.965 125.967C238.502 125.419 239.813 124.366 240.897 122.809L231.529 120.052L233.13 114.613L249.189 119.339L247.169 126.203C246.08 127.884 244.64 129.321 242.851 130.514C241.09 131.716 239.058 132.51 236.755 132.895C234.453 133.281 232.035 133.101 229.503 132.355C226.51 131.474 224.024 130.039 222.045 128.049C220.104 126.039 218.814 123.674 218.176 120.953C217.567 118.241 217.703 115.388 218.584 112.395C219.465 109.402 220.897 106.93 222.878 104.981C224.896 103.01 227.262 101.721 229.974 101.112C232.695 100.474 235.552 100.596 238.545 101.477C242.171 102.544 244.963 104.32 246.921 106.804C248.908 109.297 249.847 112.215 249.738 115.561L241.579 113.159Z" fill="#D18E27"/>
<path d="M283.441 130.986C282.622 132.622 281.493 133.936 280.057 134.928C278.634 135.893 276.937 136.401 274.964 136.453C272.992 136.505 270.853 135.953 268.546 134.798L264.281 132.661L259.202 142.8L252.322 139.353L266.472 111.109L277.617 116.693C279.87 117.822 281.579 119.165 282.745 120.722C283.911 122.279 284.54 123.937 284.633 125.694C284.725 127.452 284.328 129.216 283.441 130.986ZM270.764 129.064C272.079 129.723 273.212 129.905 274.165 129.61C275.118 129.316 275.876 128.605 276.441 127.479C277.005 126.352 277.12 125.319 276.785 124.38C276.451 123.44 275.626 122.641 274.312 121.983L270.57 120.108L267.023 127.189L270.764 129.064ZM300.29 161.565L290.816 154.546L285.976 157.905L279.504 153.11L307.493 134.531L314.652 139.835L305.031 172.022L298.487 167.174L300.29 161.565ZM302.235 155.613L305.973 143.99L295.979 150.979L302.235 155.613ZM318.864 185.475C317.25 183.822 316.073 182.079 315.331 180.245C314.59 178.412 314.358 176.584 314.634 174.763C314.932 172.964 315.8 171.319 317.24 169.831L322.96 175.692C322.207 176.595 321.846 177.513 321.877 178.447C321.929 179.36 322.343 180.214 323.119 181.008C323.915 181.824 324.726 182.29 325.552 182.406C326.399 182.501 327.156 182.224 327.821 181.574C328.38 181.029 328.653 180.386 328.64 179.643C328.649 178.922 328.499 178.167 328.191 177.378C327.903 176.611 327.417 175.576 326.733 174.274C325.758 172.374 325.046 170.742 324.596 169.379C324.146 168.016 324.036 166.572 324.267 165.047C324.498 163.522 325.321 162.069 326.738 160.686C328.842 158.632 331.228 157.791 333.897 158.163C336.587 158.514 339.126 159.913 341.515 162.36C343.946 164.851 345.304 167.445 345.59 170.143C345.896 172.819 345.04 175.249 343.019 177.431L337.204 171.473C337.892 170.718 338.199 169.894 338.125 169.002C338.073 168.089 337.669 167.246 336.915 166.473C336.265 165.808 335.559 165.449 334.796 165.398C334.054 165.325 333.351 165.613 332.685 166.263C331.955 166.975 331.721 167.874 331.984 168.959C332.247 170.044 332.854 171.547 333.807 173.468C334.738 175.41 335.418 177.052 335.847 178.394C336.298 179.757 336.418 181.19 336.209 182.694C336 184.198 335.219 185.61 333.866 186.93C332.578 188.187 331.083 188.996 329.382 189.358C327.701 189.74 325.942 189.613 324.104 188.975C322.266 188.338 320.519 187.171 318.864 185.475Z" fill="#58C845"/>
</svg>
