<svg width="183" height="138" viewBox="0 0 183 138" fill="none" xmlns="http://www.w3.org/2000/svg">
<path d="M0.384566 38.3999C77.5216 41.9583 106.706 57.2634 106.857 136.582C106.857 136.582 116.156 130.491 99.8755 144C83.5954 157.508 -6.59733 141.818 0.384566 38.3999Z" fill="#49A939"/>
<path d="M224.347 0C158.565 3.02801 133.677 16.052 133.548 83.5482C133.548 83.5482 125.619 78.3655 139.502 89.8607C153.386 101.356 230.302 88.0041 224.347 0Z" fill="#49A939"/>
<path d="M203.476 101.236C152.448 103.585 133.143 113.688 133.042 166.045C133.042 166.045 126.891 162.025 137.661 170.941C148.43 179.858 208.094 169.501 203.476 101.236Z" fill="#49A939"/>
<path d="M20.1076 58.3676C21.9273 57.0938 24.3596 57.0474 26.233 58.2407C88.2086 97.7173 110.204 128.908 123.229 196.743C123.631 198.836 122.761 200.991 121.015 202.212C117.691 204.539 113.073 202.52 112.412 198.516C101.511 132.464 78.7462 102.52 20.5043 67.75C17.0315 65.6767 16.7942 60.6873 20.1076 58.3676Z" fill="#2C6922"/>
<path d="M112.908 183.894C110.918 182.907 109.713 180.794 109.863 178.578C114.842 105.266 131.692 71.0206 185.006 27.1026C186.651 25.748 188.959 25.4798 190.868 26.4269C194.502 28.2306 194.94 33.2521 191.742 35.7492C138.976 76.9496 123.589 111.273 120.955 179.053C120.798 183.095 116.531 185.692 112.908 183.894Z" fill="#2C6922"/>
<path d="M118.821 247.058C116.966 246.138 115.77 244.237 115.738 242.166C114.717 177.39 129.01 148.301 179.509 113.66C181.127 112.549 183.242 112.4 185 113.272C188.851 115.183 189.07 120.616 185.469 122.965C137.155 154.491 124.414 183.499 126.97 241.655C127.159 245.954 122.675 248.971 118.821 247.058Z" fill="#2C6922"/>
</svg>
