<svg width="267" height="22" viewBox="0 0 267 22" fill="none" xmlns="http://www.w3.org/2000/svg">
<path d="M5.64 16.14C4.24 16.14 3.08667 15.8267 2.18 15.2C1.28667 14.56 0.84 13.6667 0.84 12.52C0.84 12.4 0.853333 12.22 0.88 11.98H3.74C3.68667 12.54 3.83333 13 4.18 13.36C4.54 13.72 5.06 13.9 5.74 13.9C6.42 13.9 6.95333 13.76 7.34 13.48C7.74 13.1867 7.94 12.7733 7.94 12.24C7.94 11.7467 7.73333 11.3533 7.32 11.06C6.92 10.7667 6.28667 10.44 5.42 10.08C4.62 9.74667 3.96667 9.44 3.46 9.16C2.96667 8.88 2.54 8.49333 2.18 8C1.83333 7.49333 1.66 6.86 1.66 6.1C1.66 5.23333 1.88 4.48 2.32 3.84C2.77333 3.2 3.38667 2.70667 4.16 2.36C4.94667 2.01333 5.84 1.84 6.84 1.84C7.82667 1.84 8.68 2.00667 9.4 2.34C10.1333 2.66 10.68 3.12 11.04 3.72C11.4133 4.32 11.5733 5.02 11.52 5.82H8.54L8.56 5.6C8.56 5.16 8.39333 4.8 8.06 4.52C7.74 4.24 7.28667 4.1 6.7 4.1C6.07333 4.1 5.56667 4.24667 5.18 4.54C4.79333 4.83333 4.6 5.23333 4.6 5.74C4.6 6.07333 4.70667 6.36667 4.92 6.62C5.14667 6.86 5.42 7.07333 5.74 7.26C6.06 7.43333 6.52 7.66 7.12 7.94C7.90667 8.28667 8.55333 8.61333 9.06 8.92C9.56667 9.22667 10 9.63333 10.36 10.14C10.72 10.6467 10.9 11.2667 10.9 12C10.9 12.8 10.68 13.5133 10.24 14.14C9.81333 14.7667 9.2 15.26 8.4 15.62C7.61333 15.9667 6.69333 16.14 5.64 16.14ZM19.387 4.74C20.8004 4.74 21.9204 5.13333 22.747 5.92C23.5737 6.69333 23.987 7.74 23.987 9.06C23.987 9.48667 23.9537 9.86667 23.887 10.2C23.807 10.6 23.7204 10.9467 23.627 11.24H15.527C15.5137 11.3333 15.507 11.4667 15.507 11.64C15.507 12.3333 15.707 12.88 16.107 13.28C16.5204 13.6667 17.0604 13.86 17.727 13.86C18.287 13.86 18.767 13.74 19.167 13.5C19.5804 13.2467 19.9137 12.92 20.167 12.52H23.187C22.6937 13.5867 21.927 14.4667 20.887 15.16C19.8604 15.84 18.6937 16.18 17.387 16.18C15.9737 16.18 14.8404 15.78 13.987 14.98C13.1337 14.18 12.707 13.0933 12.707 11.72C12.707 11.32 12.747 10.9 12.827 10.46C13.027 9.31333 13.4337 8.30667 14.047 7.44C14.6737 6.57333 15.447 5.90667 16.367 5.44C17.287 4.97333 18.2937 4.74 19.387 4.74ZM21.107 9.54C21.1337 9.32667 21.147 9.17333 21.147 9.08C21.147 8.44 20.9404 7.94 20.527 7.58C20.1137 7.22 19.5737 7.04 18.907 7.04C18.2004 7.04 17.567 7.26667 17.007 7.72C16.447 8.16 16.0537 8.76667 15.827 9.54H21.107ZM29.2308 16.18C28.4174 16.18 27.6774 16.0467 27.0108 15.78C26.3574 15.5 25.8374 15.12 25.4508 14.64C25.0774 14.1467 24.8908 13.5867 24.8908 12.96C24.8908 12.8667 24.9041 12.7133 24.9308 12.5H27.6508C27.6108 12.9667 27.7508 13.3467 28.0708 13.64C28.3908 13.92 28.8441 14.06 29.4308 14.06C29.9641 14.06 30.4041 13.9667 30.7508 13.78C31.1108 13.58 31.2908 13.2933 31.2908 12.92C31.2908 12.5867 31.1241 12.32 30.7908 12.12C30.4708 11.92 29.9574 11.6933 29.2508 11.44C28.5441 11.1867 27.9574 10.94 27.4908 10.7C27.0241 10.46 26.6241 10.1267 26.2908 9.7C25.9574 9.27333 25.7908 8.73333 25.7908 8.08C25.7908 7.42667 25.9774 6.84667 26.3508 6.34C26.7374 5.83333 27.2708 5.44 27.9508 5.16C28.6308 4.88 29.4108 4.74 30.2908 4.74C31.1308 4.74 31.8708 4.88 32.5108 5.16C33.1508 5.44 33.6441 5.83333 33.9908 6.34C34.3508 6.83333 34.5308 7.4 34.5308 8.04C34.5308 8.2 34.5241 8.32 34.5108 8.4H31.9108C31.9508 7.93333 31.8174 7.56 31.5108 7.28C31.2041 7 30.7574 6.86 30.1708 6.86C29.6908 6.86 29.2974 6.96667 28.9908 7.18C28.6841 7.38 28.5308 7.65333 28.5308 8C28.5308 8.34667 28.7041 8.63333 29.0508 8.86C29.3974 9.07333 29.9308 9.31333 30.6508 9.58C31.3708 9.86 31.9441 10.12 32.3708 10.36C32.8108 10.5867 33.1908 10.9067 33.5108 11.32C33.8308 11.72 33.9908 12.2267 33.9908 12.84C33.9908 13.52 33.7841 14.1133 33.3708 14.62C32.9574 15.1267 32.3908 15.5133 31.6708 15.78C30.9508 16.0467 30.1374 16.18 29.2308 16.18ZM48.2092 4.92L46.2492 16H43.4492L43.6892 14.6C43.2626 15.08 42.7359 15.46 42.1092 15.74C41.4826 16.0067 40.8226 16.14 40.1292 16.14C38.9826 16.14 38.0759 15.8333 37.4092 15.22C36.7426 14.5933 36.4092 13.7067 36.4092 12.56C36.4092 12.1333 36.4426 11.7533 36.5092 11.42L37.6492 4.92H40.4492L39.3692 11.02C39.3292 11.26 39.3092 11.4933 39.3092 11.72C39.3092 12.3733 39.4892 12.88 39.8492 13.24C40.2092 13.5867 40.7159 13.76 41.3692 13.76C42.1292 13.76 42.7759 13.5267 43.3092 13.06C43.8426 12.58 44.1826 11.9 44.3292 11.02L45.4092 4.92H48.2092ZM49.2919 10.42C49.4919 9.3 49.8852 8.30667 50.4719 7.44C51.0719 6.57333 51.7985 5.90667 52.6519 5.44C53.5052 4.97333 54.4052 4.74 55.3519 4.74C56.1785 4.74 56.8719 4.90667 57.4319 5.24C58.0052 5.57333 58.4252 5.99333 58.6919 6.5L58.9719 4.92H61.7919L59.8319 16H57.0119L57.3119 14.38C56.8719 14.9 56.2985 15.3333 55.5919 15.68C54.8985 16.0133 54.1385 16.18 53.3119 16.18C52.4985 16.18 51.7785 16 51.1519 15.64C50.5252 15.2667 50.0385 14.7467 49.6919 14.08C49.3452 13.4 49.1719 12.6133 49.1719 11.72C49.1719 11.3067 49.2119 10.8733 49.2919 10.42ZM57.9919 10.46C58.0452 10.1133 58.0719 9.86 58.0719 9.7C58.0719 8.91333 57.8385 8.3 57.3719 7.86C56.9185 7.42 56.3452 7.2 55.6519 7.2C55.1319 7.2 54.6252 7.32667 54.1319 7.58C53.6519 7.83333 53.2319 8.20667 52.8719 8.7C52.5119 9.18 52.2719 9.75333 52.1519 10.42C52.1119 10.6733 52.0919 10.9133 52.0919 11.14C52.0919 11.94 52.3185 12.5733 52.7719 13.04C53.2252 13.4933 53.7985 13.72 54.4919 13.72C55.0119 13.72 55.5185 13.5933 56.0119 13.34C56.5052 13.0733 56.9252 12.6933 57.2719 12.2C57.6319 11.7067 57.8719 11.1267 57.9919 10.46ZM66.1866 3.6C65.7466 3.6 65.3932 3.47333 65.1266 3.22C64.8599 2.96667 64.7266 2.64667 64.7266 2.26C64.7266 1.72667 64.9266 1.27333 65.3266 0.899999C65.7399 0.513332 66.2199 0.319999 66.7666 0.319999C67.1932 0.319999 67.5399 0.446666 67.8066 0.699999C68.0732 0.953332 68.2066 1.27333 68.2066 1.66C68.2066 2.19333 68.0066 2.65333 67.6066 3.04C67.2066 3.41333 66.7332 3.6 66.1866 3.6ZM67.3466 4.92L65.3866 16H62.5666L64.5266 4.92H67.3466ZM74.413 10.46L78.333 16H74.713L71.793 11.3L70.953 16H68.133L70.753 1.2H73.573L72.093 9.6L76.613 4.92H80.273L74.413 10.46ZM80.0927 10.42C80.2927 9.3 80.686 8.30667 81.2727 7.44C81.8727 6.57333 82.5993 5.90667 83.4527 5.44C84.306 4.97333 85.206 4.74 86.1527 4.74C86.9793 4.74 87.6727 4.90667 88.2327 5.24C88.806 5.57333 89.226 5.99333 89.4927 6.5L89.7727 4.92H92.5927L90.6327 16H87.8127L88.1127 14.38C87.6727 14.9 87.0993 15.3333 86.3927 15.68C85.6993 16.0133 84.9393 16.18 84.1127 16.18C83.2993 16.18 82.5793 16 81.9527 15.64C81.326 15.2667 80.8393 14.7467 80.4927 14.08C80.146 13.4 79.9727 12.6133 79.9727 11.72C79.9727 11.3067 80.0127 10.8733 80.0927 10.42ZM88.7927 10.46C88.846 10.1133 88.8727 9.86 88.8727 9.7C88.8727 8.91333 88.6393 8.3 88.1727 7.86C87.7193 7.42 87.146 7.2 86.4527 7.2C85.9327 7.2 85.426 7.32667 84.9327 7.58C84.4527 7.83333 84.0327 8.20667 83.6727 8.7C83.3127 9.18 83.0727 9.75333 82.9527 10.42C82.9127 10.6733 82.8927 10.9133 82.8927 11.14C82.8927 11.94 83.1193 12.5733 83.5727 13.04C84.026 13.4933 84.5993 13.72 85.2927 13.72C85.8127 13.72 86.3193 13.5933 86.8127 13.34C87.306 13.0733 87.726 12.6933 88.0727 12.2C88.4327 11.7067 88.6727 11.1267 88.7927 10.46ZM101.487 4.76C102.634 4.76 103.534 5.07333 104.187 5.7C104.854 6.31333 105.187 7.19333 105.187 8.34C105.187 8.76667 105.154 9.15333 105.087 9.5L103.927 16H101.147L102.227 9.88C102.267 9.64 102.287 9.40667 102.287 9.18C102.287 8.51333 102.107 8.00667 101.747 7.66C101.401 7.31333 100.901 7.14 100.247 7.14C99.5007 7.14 98.8607 7.36667 98.3273 7.82C97.8073 8.26 97.4607 8.9 97.2873 9.74L96.1873 16H93.3673L95.3273 4.92H98.1473L97.9073 6.28C98.3607 5.81333 98.9007 5.44667 99.5273 5.18C100.154 4.9 100.807 4.76 101.487 4.76ZM110.27 13.02L106.95 18.68H105.11L107.31 13.02H110.27ZM131.099 2.04L128.639 16H125.819L126.879 10.02H120.919L119.859 16H117.039L119.519 2.04H122.319L121.299 7.82H127.279L128.299 2.04H131.099ZM134.995 3.6C134.555 3.6 134.202 3.47333 133.935 3.22C133.668 2.96667 133.535 2.64667 133.535 2.26C133.535 1.72667 133.735 1.27333 134.135 0.899999C134.548 0.513332 135.028 0.319999 135.575 0.319999C136.002 0.319999 136.348 0.446666 136.615 0.699999C136.882 0.953332 137.015 1.27333 137.015 1.66C137.015 2.19333 136.815 2.65333 136.415 3.04C136.015 3.41333 135.542 3.6 134.995 3.6ZM136.155 4.92L134.195 16H131.375L133.335 4.92H136.155ZM140.822 12.58C140.808 12.66 140.802 12.7667 140.802 12.9C140.802 13.1667 140.875 13.36 141.022 13.48C141.182 13.5867 141.442 13.64 141.802 13.64H143.122L142.702 16H140.922C138.922 16 137.922 15.1667 137.922 13.5C137.922 13.18 137.948 12.8667 138.002 12.56L138.942 7.22H137.622L138.022 4.92H139.362L139.842 2.18H142.662L142.182 4.92H144.642L144.242 7.22H141.762L140.822 12.58ZM157.115 4.92L155.155 16H152.355L152.595 14.6C152.169 15.08 151.642 15.46 151.015 15.74C150.389 16.0067 149.729 16.14 149.035 16.14C147.889 16.14 146.982 15.8333 146.315 15.22C145.649 14.5933 145.315 13.7067 145.315 12.56C145.315 12.1333 145.349 11.7533 145.415 11.42L146.555 4.92H149.355L148.275 11.02C148.235 11.26 148.215 11.4933 148.215 11.72C148.215 12.3733 148.395 12.88 148.755 13.24C149.115 13.5867 149.622 13.76 150.275 13.76C151.035 13.76 151.682 13.5267 152.215 13.06C152.749 12.58 153.089 11.9 153.235 11.02L154.315 4.92H157.115ZM166.038 4.76C167.185 4.76 168.085 5.07333 168.738 5.7C169.405 6.31333 169.738 7.19333 169.738 8.34C169.738 8.76667 169.705 9.15333 169.638 9.5L168.478 16H165.698L166.778 9.88C166.818 9.64 166.838 9.40667 166.838 9.18C166.838 8.51333 166.658 8.00667 166.298 7.66C165.951 7.31333 165.451 7.14 164.798 7.14C164.051 7.14 163.411 7.36667 162.878 7.82C162.358 8.26 162.011 8.9 161.838 9.74L160.738 16H157.918L159.878 4.92H162.698L162.458 6.28C162.911 5.81333 163.451 5.44667 164.078 5.18C164.705 4.9 165.358 4.76 166.038 4.76ZM177.481 4.74C178.307 4.74 179.007 4.90667 179.581 5.24C180.167 5.56 180.581 5.98 180.821 6.5L181.101 4.92H183.921L181.961 16.08C181.774 17.1067 181.401 18.02 180.841 18.82C180.281 19.6333 179.547 20.2733 178.641 20.74C177.734 21.22 176.694 21.46 175.521 21.46C173.961 21.46 172.741 21.0933 171.861 20.36C170.994 19.6267 170.601 18.6267 170.681 17.36H173.461C173.514 17.8667 173.754 18.2667 174.181 18.56C174.621 18.8667 175.187 19.02 175.881 19.02C176.707 19.02 177.407 18.7733 177.981 18.28C178.567 17.8 178.954 17.0667 179.141 16.08L179.441 14.36C178.987 14.88 178.414 15.3133 177.721 15.66C177.041 16.0067 176.294 16.18 175.481 16.18C174.667 16.18 173.941 16 173.301 15.64C172.674 15.2667 172.181 14.7467 171.821 14.08C171.474 13.4 171.301 12.6133 171.301 11.72C171.301 11.3067 171.341 10.8733 171.421 10.42C171.621 9.3 172.014 8.30667 172.601 7.44C173.201 6.57333 173.927 5.90667 174.781 5.44C175.634 4.97333 176.534 4.74 177.481 4.74ZM180.121 10.46C180.174 10.1133 180.201 9.86 180.201 9.7C180.201 8.91333 179.967 8.3 179.501 7.86C179.047 7.42 178.474 7.2 177.781 7.2C177.261 7.2 176.754 7.32667 176.261 7.58C175.781 7.83333 175.361 8.20667 175.001 8.7C174.641 9.18 174.401 9.75333 174.281 10.42C174.241 10.6733 174.221 10.9133 174.221 11.14C174.221 11.94 174.447 12.5733 174.901 13.04C175.354 13.4933 175.927 13.72 176.621 13.72C177.141 13.72 177.647 13.5933 178.141 13.34C178.634 13.0733 179.054 12.6933 179.401 12.2C179.761 11.7067 180.001 11.1267 180.121 10.46ZM188.375 13.02L185.055 18.68H183.215L185.415 13.02H188.375ZM207.125 2.04L206.725 4.24H203.025L200.945 16H198.125L200.205 4.24H196.485L196.885 2.04H207.125ZM206.968 10.42C207.168 9.3 207.561 8.30667 208.148 7.44C208.748 6.57333 209.474 5.90667 210.328 5.44C211.181 4.97333 212.081 4.74 213.028 4.74C213.854 4.74 214.548 4.90667 215.108 5.24C215.681 5.57333 216.101 5.99333 216.368 6.5L216.648 4.92H219.468L217.508 16H214.688L214.988 14.38C214.548 14.9 213.974 15.3333 213.268 15.68C212.574 16.0133 211.814 16.18 210.988 16.18C210.174 16.18 209.454 16 208.828 15.64C208.201 15.2667 207.714 14.7467 207.368 14.08C207.021 13.4 206.848 12.6133 206.848 11.72C206.848 11.3067 206.888 10.8733 206.968 10.42ZM215.668 10.46C215.721 10.1133 215.748 9.86 215.748 9.7C215.748 8.91333 215.514 8.3 215.048 7.86C214.594 7.42 214.021 7.2 213.328 7.2C212.808 7.2 212.301 7.32667 211.808 7.58C211.328 7.83333 210.908 8.20667 210.548 8.7C210.188 9.18 209.948 9.75333 209.828 10.42C209.788 10.6733 209.768 10.9133 209.768 11.14C209.768 11.94 209.994 12.5733 210.448 13.04C210.901 13.4933 211.474 13.72 212.168 13.72C212.688 13.72 213.194 13.5933 213.688 13.34C214.181 13.0733 214.601 12.6933 214.948 12.2C215.308 11.7067 215.548 11.1267 215.668 10.46ZM228.362 4.76C229.509 4.76 230.409 5.07333 231.062 5.7C231.729 6.31333 232.062 7.19333 232.062 8.34C232.062 8.76667 232.029 9.15333 231.962 9.5L230.802 16H228.022L229.102 9.88C229.142 9.64 229.162 9.40667 229.162 9.18C229.162 8.51333 228.982 8.00667 228.622 7.66C228.276 7.31333 227.776 7.14 227.122 7.14C226.376 7.14 225.736 7.36667 225.202 7.82C224.682 8.26 224.336 8.9 224.162 9.74L223.062 16H220.242L222.202 4.92H225.022L224.782 6.28C225.236 5.81333 225.776 5.44667 226.402 5.18C227.029 4.9 227.682 4.76 228.362 4.76ZM233.745 10.42C233.945 9.3 234.338 8.30667 234.925 7.44C235.525 6.57333 236.252 5.90667 237.105 5.44C237.958 4.97333 238.858 4.74 239.805 4.74C240.632 4.74 241.325 4.90667 241.885 5.24C242.458 5.57333 242.878 5.99333 243.145 6.5L243.425 4.92H246.245L244.285 16H241.465L241.765 14.38C241.325 14.9 240.752 15.3333 240.045 15.68C239.352 16.0133 238.592 16.18 237.765 16.18C236.952 16.18 236.232 16 235.605 15.64C234.978 15.2667 234.492 14.7467 234.145 14.08C233.798 13.4 233.625 12.6133 233.625 11.72C233.625 11.3067 233.665 10.8733 233.745 10.42ZM242.445 10.46C242.498 10.1133 242.525 9.86 242.525 9.7C242.525 8.91333 242.292 8.3 241.825 7.86C241.372 7.42 240.798 7.2 240.105 7.2C239.585 7.2 239.078 7.32667 238.585 7.58C238.105 7.83333 237.685 8.20667 237.325 8.7C236.965 9.18 236.725 9.75333 236.605 10.42C236.565 10.6733 236.545 10.9133 236.545 11.14C236.545 11.94 236.772 12.5733 237.225 13.04C237.678 13.4933 238.252 13.72 238.945 13.72C239.465 13.72 239.972 13.5933 240.465 13.34C240.958 13.0733 241.378 12.6933 241.725 12.2C242.085 11.7067 242.325 11.1267 242.445 10.46ZM262.78 4.76C263.953 4.76 264.88 5.07333 265.56 5.7C266.24 6.32667 266.58 7.21333 266.58 8.36C266.58 8.78667 266.546 9.16667 266.48 9.5L265.32 16H262.54L263.62 9.88C263.66 9.64 263.68 9.40667 263.68 9.18C263.68 8.54 263.5 8.05333 263.14 7.72C262.793 7.37333 262.293 7.2 261.64 7.2C260.866 7.2 260.213 7.43333 259.68 7.9C259.146 8.35333 258.813 9.01333 258.68 9.88V9.86L257.58 16H254.8L255.88 9.88C255.92 9.64 255.94 9.41333 255.94 9.2C255.94 8.54667 255.76 8.05333 255.4 7.72C255.04 7.37333 254.533 7.2 253.88 7.2C253.146 7.2 252.513 7.42 251.98 7.86C251.46 8.28667 251.12 8.9 250.96 9.7L249.84 16H247.02L248.98 4.92H251.8L251.56 6.24C252 5.78667 252.526 5.42667 253.14 5.16C253.753 4.89333 254.4 4.76 255.08 4.76C255.946 4.76 256.686 4.94667 257.3 5.32C257.913 5.68 258.346 6.2 258.6 6.88C259.066 6.24 259.673 5.72667 260.42 5.34C261.18 4.95333 261.966 4.76 262.78 4.76Z" fill="#49A939"/>
</svg>
